<?xml version="1.0" encoding="iso-8859-1"?>
<!-- Generator: Adobe Illustrator 19.0.0, SVG Export Plug-In . SVG Version: 6.00 Build 0)  -->
<svg xmlns="http://www.w3.org/2000/svg" xmlns:xlink="http://www.w3.org/1999/xlink" version="1.1" id="Capa_1" x="0px" y="0px" viewBox="0 0 490.376 490.376" style="enable-background:new 0 0 490.376 490.376;" xml:space="preserve">
	<path style="fill:#292F33;" d="M358.199,227.926c44.228-20.957,76.447-54.447,95.765-99.541c2.284-5.33-0.187-11.503-5.517-13.786  c-5.33-2.285-11.504,0.187-13.786,5.517c-17.241,40.246-45.992,70.135-85.454,88.834c-16.249,7.7-32.798,12.606-47.155,15.425  c0.001-0.209,0.011-0.415,0.011-0.625c0-3.881-0.189-7.693-0.524-11.435c59.402-48.293,96.988-126.499,96.399-201.897  c-0.045-5.798-4.765-10.504-10.582-10.417c-5.799,0.045-10.463,4.783-10.418,10.582c0.512,65.479-30.383,133.289-79.946,177.988  c-2.423-8.005-5.638-15.356-9.51-21.812c10.821-14.869,10.831-29.995,10.831-42.508c0-5.799-4.701-10.5-10.5-10.5  s-10.5,4.701-10.5,10.5c0,9.514-0.006,17.617-3.925,25.445c-8.317-7.154-17.94-11.279-28.2-11.32  c-10.268,0-19.898,4.118-28.219,11.281c-3.9-7.816-3.906-15.908-3.906-25.406c0-5.799-4.701-10.5-10.5-10.5s-10.5,4.701-10.5,10.5  c0,12.507,0.01,27.625,10.817,42.489c-3.868,6.461-7.079,13.817-9.5,21.827c-49.56-44.698-80.454-112.507-79.942-177.984  c0.045-5.799-4.619-10.537-10.417-10.582c-0.028,0-0.056,0-0.083,0c-5.761,0-10.453,4.647-10.498,10.418  c-0.589,75.398,36.997,153.604,96.398,201.897c-0.335,3.743-0.524,7.555-0.524,11.435c0,0.209,0.01,0.415,0.011,0.625  c-14.357-2.82-30.906-7.726-47.155-15.425c-39.462-18.699-68.212-48.588-85.454-88.834c-2.283-5.33-8.456-7.802-13.787-5.517  c-5.331,2.283-7.8,8.456-5.517,13.786c19.318,45.094,51.538,78.584,95.765,99.541c22.029,10.438,42.634,15.593,58.115,18.132  c0.593,3.288,1.315,6.494,2.154,9.612c-16.261,0.583-38.429,3.28-61.43,12.642c-45.092,18.356-77.026,54.901-94.915,108.62  c-1.833,5.502,1.143,11.447,6.645,13.279c1.101,0.367,2.219,0.541,3.319,0.541c4.397,0,8.495-2.784,9.96-7.186  c21.263-63.851,63.008-99.353,124.292-105.862c-2.787,3.684-5.332,7.609-7.611,11.742c-18.441,19.798-35.204,44.917-49.039,73.87  c-19.263,40.313-31.229,84.975-31.229,116.559c0,5.799,4.701,10.5,10.5,10.5s10.5-4.701,10.5-10.5  c0-28.648,11.18-69.841,29.177-107.504c5.325-11.143,11.086-21.653,17.203-31.43c0.206,53.176,38.372,96.194,85.37,96.194  s85.165-43.018,85.37-96.195c6.117,9.778,11.878,20.287,17.203,31.431c17.997,37.663,29.177,78.855,29.177,107.504  c0,5.799,4.701,10.5,10.5,10.5s10.5-4.701,10.5-10.5c0-31.584-11.967-76.246-31.229-116.559  c-13.835-28.952-30.597-54.071-49.038-73.869c-2.279-4.133-4.824-8.058-7.611-11.742c61.283,6.509,103.029,42.013,124.292,105.862  c1.466,4.401,5.563,7.186,9.96,7.186c1.1,0,2.219-0.175,3.319-0.541c5.502-1.832,8.477-7.777,6.645-13.279  c-17.889-53.719-49.822-90.264-94.915-108.62c-23-9.364-45.168-12.06-61.429-12.643c0.839-3.118,1.561-6.324,2.154-9.612  C315.565,243.519,336.17,238.364,358.199,227.926z"/>
	<g></g><g></g><g></g><g></g><g></g><g></g><g></g><g></g><g></g><g></g><g></g><g></g><g></g><g></g><g></g>
</svg>
