<?xml version="1.0" encoding="iso-8859-1"?>
<!-- Generator: Adobe Illustrator 19.0.0, SVG Export Plug-In . SVG Version: 6.00 Build 0)  -->
<svg xmlns="http://www.w3.org/2000/svg" xmlns:xlink="http://www.w3.org/1999/xlink" version="1.1" id="Capa_1" x="0px" y="0px" viewBox="0 0 499.647 499.647" style="enable-background:new 0 0 499.647 499.647;" xml:space="preserve">
	<g transform="matrix(1.25 0 0 -1.25 0 45)">
		<g>
			<g>
				<g>
					<path style="fill:#FFAC33;" d="M96.502-100.382c-1.263-18.796,20.116-35.567-8.101-33.667s-89.156,28.82-88.394,40.175      c0.762,11.344,42.2,31.357,70.406,29.457C98.63-66.317,97.765-81.575,96.502-100.382"/>
					<path style="fill:#FFAC33;" d="M325.468-282.995c-2.298,0.364-4.46-0.171-6.417-1.081c-26.453-2.64-36.693,21.447-36.693,21.447      c-5.006,3.823-11.173,22.869-18.079,13.824l2.128-15.952c2.128-15.94,29.241-36.682,29.241-36.682l-13.824-18.068      c-3.823-5.006-2.879-12.14,2.128-15.952c4.995-3.823,12.129-2.867,15.94,2.128l7.657,10.001l-0.444-2.833      c-0.99-6.212,3.243-12.038,9.455-13.016c6.212-0.99,12.038,3.243,13.016,9.455l5.348,33.701      C335.913-289.811,331.681-283.985,325.468-282.995"/>
					<path style="fill:#FFAC33;" d="M254.016-290.072c-2.23,0.66-4.437,0.421-6.508-0.205c-26.567,0.922-33.485,26.169-33.485,26.169      c-4.449,4.449-8.01,24.144-16.065,16.122l-0.034-16.1c-0.023-16.088,24.064-40.266,24.064-40.266l-16.122-16.065      c-4.449-4.437-4.46-11.628-0.023-16.088c4.437-4.449,11.628-4.471,16.088-0.023l8.932,8.886l-0.831-2.742      c-1.809-6.03,1.604-12.368,7.623-14.177c6.03-1.809,12.368,1.604,14.177,7.623l9.808,32.688      C263.448-298.219,260.035-291.881,254.016-290.072"/>
				</g>
				<g>
					<path style="fill:#DD2E44;" d="M393.394-30.409c-4.358,1.934-8.624,0.649-11.947-2.776      c-0.614-0.637-48.071-71.76-165.342-56.252c-3.868,0.512,35.715-136.169,36.398-136.101c1.411,0.171,34.93,4.198,69.848,29.047      c32.063,22.812,71.509,68.176,77.335,154.715C400.016-37.008,397.751-32.354,393.394-30.409"/>
					<path style="fill:#DD2E44;" d="M387.329-193.998c-2.321,3.823-6.713,6.372-11.139,5.359      c-14.723-3.356-36.375-6.167-51.541-5.154c-72.329,4.881-106.507,46.979-106.86,47.343      c-3.129,3.209,5.291-131.436,9.284-131.709c104.607-7.043,157.719,68.574,159.937,71.794      C389.537-202.657,389.662-197.821,387.329-193.998"/>
					<path style="fill:#DD2E44;" d="M274.792-170.196c-4.221-62.692,14.973-112.196-47.718-107.964      c-62.703,4.221-115.439,55.979-111.206,118.67C120.088-96.787,279.013-107.505,274.792-170.196"/>
					<path style="fill:#DD2E44;" d="M259.671-95.057c-4.016-59.563-44.624-105.324-104.175-101.308      C95.933-192.36,50.9-140.819,54.916-81.256c4.016,59.563,54.977,96.074,114.54,92.058      C214.979,7.741,263.209-42.481,259.671-95.057"/>
				</g>
				<path style="fill:#292F33;" d="M139.169-57.636c-0.842-12.538-11.696-22.016-24.235-21.174     c-12.538,0.842-22.016,11.696-21.174,24.235c0.842,12.538,11.696,22.016,24.235,21.174     C130.533-34.243,140.011-45.097,139.169-57.636"/>
				<path style="fill:#A0041E;" d="M201.906-143.219c0,0,86.812-64.262,140.937,50.734c4.506,9.58,19.16-9.023,1.126-47.354     c-18.045-38.332-93.013-73.273-136.988-17.476C197.707-145.54,201.906-143.219,201.906-143.219"/>
				<g>
					<path style="fill:#DD2E44;" d="M169.445,10.813c0,0,71.066-2.89,88.724,5.427c17.67,8.306,1.559-33.371-37.114-43.122      C182.381-36.621,169.445,10.813,169.445,10.813"/>
					<path style="fill:#DD2E44;" d="M193.35-19.714c0,0,51.211-1.547,68.881,6.758c17.658,8.317,1.547-33.36-37.126-43.11      C186.443-65.816,193.35-19.714,193.35-19.714"/>
				</g>
			</g>
		</g>
	</g><g></g><g></g><g></g><g></g><g></g><g></g><g></g><g></g><g></g><g></g><g></g><g></g><g></g><g></g><g></g>
</svg>
