<?xml version="1.0" encoding="iso-8859-1"?>
<!-- Generator: Adobe Illustrator 19.0.0, SVG Export Plug-In . SVG Version: 6.00 Build 0)  -->
<svg xmlns="http://www.w3.org/2000/svg" xmlns:xlink="http://www.w3.org/1999/xlink" version="1.1" id="Capa_1" x="0px" y="0px" viewBox="0 0 507.141 507.141" style="enable-background:new 0 0 507.141 507.141;" xml:space="preserve">
<g transform="matrix(1.25 0 0 -1.25 0 45)">
	<g>
		<g>
			<g>
				<path style="fill:#3B88C3;" d="M363.873-189.612c0,11.378,17.328,70.679,34.668,88.007c17.317,17.34,0,36.022-17.34,36.022      c-38.741,0-103.97-78.518-103.97-124.029c0-56.889,65.229-118.602,103.97-118.602c17.34,0,34.657,15.974,17.34,33.314      C381.201-257.583,363.873-212.368,363.873-189.612"/>
				<path style="fill:#3B88C3;" d="M100.705-80.203c0,34.657,17.033,69.325,34.361,69.325c51.985,0,151.575-54.875,168.903-141.54      C321.308-239.06,100.705-80.203,100.705-80.203"/>
				<path style="fill:#3B88C3;" d="M155.955-288.166c17.328-17.328,51.996-34.668,86.665-34.668      c34.657,0-35.396,47.673-17.34,69.313C250.095-223.745,155.955-288.166,155.955-288.166"/>
			</g>
			<path d="M21.641-243.395c8.658,25.998,2.162,44.772-13.005,63.534c-15.167,18.785,44.055,21.663,63.545-4.335     c19.502-25.998,65.001-71.464,24.565-70.77C56.297-254.227,21.641-243.395,21.641-243.395"/>
			<path style="fill:#55ACEE;" d="M0-183.787c10.911-9.944,82.182-49.027,81.522-58.448c-0.66-9.421-25.93,1.001-35.328,3.186     c-16.896,3.88-21.675,6.793-26.362,5.985c-9.557-3.652-6.303-13.665-2.753-19.388c17.044-29.707,82.898-53.043,138.354-53.043     c95.71,0,191.169,86.642,191.169,121.31c0,34.657-106.314,121.321-202.024,121.321C49.084-62.864,0.125-131.836,0-183.787"/>
			<path d="M77.722-109.968c12.561,0,22.756-10.172,22.756-22.744s-10.194-22.767-22.756-22.767     c-12.572,0-22.756,10.194-22.756,22.767S65.149-109.968,77.722-109.968"/>
			<path style="fill:#226699;" d="M169.654-257.651c-1.775,0-3.573,0.41-5.257,1.286c-5.575,2.913-7.726,9.796-4.813,15.36     c18.034,34.52,25.236,65.616,1.752,105.165c-3.209,5.404-1.434,12.379,3.971,15.599c5.404,3.209,12.379,1.411,15.599-3.971     c30.64-51.61,16.612-93.332-1.161-127.329C177.721-255.433,173.761-257.651,169.654-257.651"/>
		</g>
	</g>
</g>
<g>
</g>
<g>
</g>
<g>
</g>
<g>
</g>
<g>
</g>
<g>
</g>
<g>
</g>
<g>
</g>
<g>
</g>
<g>
</g>
<g>
</g>
<g>
</g>
<g>
</g>
<g>
</g>
<g>
</g>
</svg>
