<?xml version="1.0" encoding="iso-8859-1"?>
<!-- Generator: Adobe Illustrator 19.0.0, SVG Export Plug-In . SVG Version: 6.00 Build 0)  -->
<svg xmlns="http://www.w3.org/2000/svg" xmlns:xlink="http://www.w3.org/1999/xlink" version="1.1" id="Capa_1" x="0px" y="0px" viewBox="0 0 512 512" style="enable-background:new 0 0 512 512;" xml:space="preserve">
<g transform="matrix(1.25 0 0 -1.25 0 45)">
	<path style="fill:#292F33;" d="M216.2-334.475c0,0.3,0,0.5,0,0.8c59.3,8.4,105.6,81.4,105.6,147.1c0,47.3-24.1,77.1-59.7,91.4   c4.7,11.5,7.4,24,7.4,36.4c0,18-5.6,28.4-15,34.5c12.4,5.5,28.6,17.1,34.4,22.9c8.9,8.9,10.7,21.5,4,28.2c-6.7,6.7-19.3,4.9-28.2-4   c-7-7-22.2-28.8-25.3-41.2c-10.1,2.2-22,2.5-34.8,2.5c-12.8,0-24.7-0.3-34.8-2.5c-3.1,12.4-18.3,34.2-25.3,41.2   c-8.9,8.9-21.5,10.7-28.1,4c-6.7-6.7-4.9-19.3,4-28.2c5.8-5.8,22-17.4,34.5-22.9c-9.3-6.1-15-16.5-15-34.5c0-12.4,2.7-25,7.4-36.4   c-35.6-14.3-59.7-44.1-59.7-91.4c0.2-65.6,46.6-138.6,105.8-147c0-0.3,0-0.5,0-0.8c0-18.9,5.1-34.1,11.4-34.1   C211.1-368.575,216.2-353.275,216.2-334.475z"/>
	<g>
		<g>
			<path style="fill:#FFCC4D;" d="M166.5-175.175h76.7c-16.6,16.2-29.8,32.8-35.4,45.5h-5.9     C196.3-142.375,183-158.975,166.5-175.175z"/>
			<path style="fill:#FFCC4D;" d="M105.4-220.675c-4.2-2.2-8.3-4.1-12.3-5.7c3.6-13.8,9-27.3,15.8-39.8h191.7     c6.8,12.5,12.2,26,15.8,39.8c-4,1.6-8.1,3.5-12.3,5.7H105.4z"/>
			<path style="fill:#FFCC4D;" d="M145.9-311.675c17.3-14.1,37.4-22.8,58.9-22.8s41.6,8.7,58.9,22.8H145.9z"/>
		</g>
		<g>
			<path style="fill:#292F33;" d="M166.5-175.175c16.6,16.2,29.8,32.8,35.4,45.5c1.9,4.3,2.9,8.1,2.9,11.4c0,21.9-47.3,9.4-91.2,1     c-16.1-16.4-25.7-39.4-25.7-69.3c0-13.2,1.9-26.6,5.3-39.8c4,1.6,8.1,3.5,12.3,5.7C126.1-209.875,148.3-192.775,166.5-175.175z"/>
			<path style="fill:#292F33;" d="M204.8-118.275c0-3.2,1-7.1,2.9-11.4c5.6-12.7,18.8-29.4,35.4-45.5c18.1-17.7,40.3-34.8,61-45.5     c4.2-2.2,8.3-4.1,12.3-5.7c3.5,13.2,5.3,26.7,5.3,39.8c0,29.9-9.6,52.8-25.7,69.3C252.1-108.875,204.8-96.375,204.8-118.275z"/>
		</g>
	</g>
	<g>
		<g>
			<path style="fill:#CCD6DD;" d="M68.3-101.275c-47.1,0-68.3-21-68.3-51.1s21.1-57.9,68.3-57.9s136.5,67.5,136.5,97.7     C204.8-82.575,115.4-101.275,68.3-101.275z M186.7-128.675c-103.4-45.9-161.5-46.5-163.9-46.5c-6.3,0-11.4,5.1-11.4,11.4     s5.1,11.4,11.4,11.4c0.5,0,56.3,0.8,154.7,44.5c5.7,2.6,12.5,0,15-5.8C195-119.375,192.4-126.075,186.7-128.675z"/>
			<path style="fill:#CCD6DD;" d="M341.3-101.275c-47.1,0-136.5,18.7-136.5-11.4s89.4-97.7,136.5-97.7s68.3,27.8,68.3,57.9     C409.6-122.275,388.5-101.275,341.3-101.275z M386.8-175.175c-2.4,0-60.5,0.5-163.9,46.5c-5.7,2.6-8.3,9.3-5.8,15     c2.6,5.7,9.3,8.3,15,5.8c98.4-43.7,154.1-44.5,154.7-44.5c6.3,0,11.3-5.1,11.3-11.4C398.2-170.075,393.1-175.175,386.8-175.175z"/>
		</g>
		<g>
			<path style="fill:#99AAB5;" d="M177.4-107.875c-98.4-43.7-154.1-44.5-154.7-44.5c-6.3,0-11.4-5.1-11.4-11.4s5.1-11.4,11.4-11.4     c2.4,0,60.5,0.5,163.9,46.5c5.7,2.6,8.3,9.3,5.8,15C189.9-107.875,183.2-105.275,177.4-107.875z"/>
			<path style="fill:#99AAB5;" d="M386.9-152.375c-0.6,0-56.3,0.8-154.7,44.5c-5.7,2.5-12.5,0-15-5.8c-2.5-5.7,0-12.5,5.8-15     c103.4-46,161.5-46.5,163.9-46.5c6.3,0,11.3,5.1,11.4,11.3C398.2-157.575,393.1-152.475,386.9-152.375z"/>
		</g>
	</g>
</g>
<g>
</g>
<g>
</g>
<g>
</g>
<g>
</g>
<g>
</g>
<g>
</g>
<g>
</g>
<g>
</g>
<g>
</g>
<g>
</g>
<g>
</g>
<g>
</g>
<g>
</g>
<g>
</g>
<g>
</g>
</svg>
