<?xml version="1.0" encoding="iso-8859-1"?>
<!-- Generator: Adobe Illustrator 19.0.0, SVG Export Plug-In . SVG Version: 6.00 Build 0)  -->
<svg xmlns="http://www.w3.org/2000/svg" xmlns:xlink="http://www.w3.org/1999/xlink" version="1.1" id="Capa_1" x="0px" y="0px" viewBox="0 0 512 512" style="enable-background:new 0 0 512 512;" xml:space="preserve">
	<g transform="matrix(1.25 0 0 -1.25 0 45)">
		<g>
			<g>
				<path style="fill:#BF6952;" d="M329.956,30.311c-47.093,0-68.267-39.925-68.267-68.267c0-29.241,27.648-56.889,56.889-56.889     c21.845,0,39.458,14.564,42.849,35.419c2.628,16.225-4.972,36.011-27.876,43.645c-6.007,1.991-12.39-1.24-14.382-7.202     s1.229-12.402,7.191-14.393c13.346-4.449,13.266-14.347,12.595-18.409c-1.263-7.851-8.192-16.304-20.378-16.304     c-16.589,0-34.133,17.545-34.133,34.133c0,14.848,11.127,45.511,45.511,45.511c32.973,0,56.889-28.706,56.889-68.267v-170.667     c0-40.687-15.383-64.683-48.754-74.456c1.252,11.571,2.196,25.293,2.731,41.586c6.872,35.988,1.172,81.135-20.207,123.893     c-21.22,42.405-67.425,67.573-114.051,64.796c-2.628,58.22-34.52,105.87-99.533,105.87c-67.937,0-70.872-79.644-105.006-129.695     c-15.371-22.562,61.759-80.304,105.006-80.304c0.159,0,0.33,0.023,0.489,0.023c4.005-0.33,9.114,0.102,15.485,1.479     c6.497,1.161,13.073,3.038,19.558,5.564c31.073,9.5,49.789,10.138,60.518,5.04c-8.101-38.32-43.486-70.861-66.549-109.306     c-34.133-56.889,11.378-91.022,34.133-91.022c34.133,0,34.133,34.133,22.756,34.133c-22.756,0-29.946,35.305-22.756,56.889     c7.487,22.46,29.685,40.061,44.043,68.87c-2.992-19.115-9.91-40.914-9.91-57.492c0-51.974,13.312-68.267,68.267-68.267     c2.139,0,4.096,0.387,6.155,0.592c-2.002-0.353-4.028-0.592-6.155-0.592c-53.407,0-62.578-10.194-62.578-22.756     c0-9.205,5.689-11.378,17.067-11.378H307.2c7.407,0,19.661,0.034,27.284,37.786c49.88,10.502,75.116,43.588,75.116,98.748     v170.667C409.6-8.817,375.353,30.311,329.956,30.311"/>
				<g>
					<path style="fill:#D79E84;" d="M127.181-47.058c0,23.882-19.365,43.224-43.236,43.224c-23.882,0-43.247-19.342-43.247-43.224      c0-3.129,0.375-6.167,1.001-9.114c-11.753-4.301-22.71-13.028-30.208-27.307c-2.901-5.53-6.03-10.877-9.466-15.918      c-8.09-11.878,9.444-33.496,34.179-51.314c22.255-16.031,68.221-5.905,68.221,55.854c0,3.3-0.444,6.383-1.104,9.353      C117.419-78.392,127.181-63.931,127.181-47.058"/>
					<path style="fill:#D79E84;" d="M157.264-32.267c0-21.993-2.901-39.822,19.092-39.822c22.005,0,39.822,17.829,39.822,39.822      S198.36,7.556,176.356,7.556C154.362,7.556,157.264-10.273,157.264-32.267"/>
				</g>
				<path style="fill:#292F33;" d="M84.594-53.554c0-10.229-5.518-18.534-12.345-18.534c-6.838,0-12.356,8.306-12.356,18.534     s5.518,18.523,12.356,18.523C79.076-35.031,84.594-43.326,84.594-53.554"/>
				<path style="fill:#642116;" d="M45.511-94.844c0-6.281-24.69-22.756-35.1-22.756S0-112.503,0-106.222h10.411     C22.767-106.222,45.511-88.564,45.511-94.844"/>
			</g>
		</g>
	</g><g></g><g></g><g></g><g></g><g></g><g></g><g></g><g></g><g></g><g></g><g></g><g></g><g></g><g></g><g></g>
</svg>
